STARTFONT 2.1
FONT -Adobe-ITC Avant Garde Gothic-Demi-O-Normal--34-240-100-100-P-183-ISO8859-1
SIZE 24 100 100
FONTBOUNDINGBOX 37 40 0 -7

STARTPROPERTIES 25
FONTNAME_REGISTRY ""
FAMILY_NAME "ITC Avant Garde Gothic"
FOUNDRY "Adobe"
WEIGHT_NAME "Demi"
SLANT "O"
SETWIDTH_NAME "Normal"
ADD_STYLE_NAME ""
PIXEL_SIZE 34
POINT_SIZE 240
RESOLUTION_X 100
RESOLUTION_Y 100
SPACING "P"
AVERAGE_WIDTH 183
CHARSET_REGISTRY "ISO8859"
CHARSET_ENCODING "1"
CHARSET_COLLECTIONS "ASCII ISO8859-1 ADOBE-STANDARD"
FULL_NAME "ITC Avant Garde Gothic Demi Oblique"
COPYRIGHT "Copyright (c) 1987 Adobe Systems, Inc., Portions Copyright 1988 Digital Equipment Corp."
CAP_HEIGHT 25
X_HEIGHT 19
WEIGHT 10
QUAD_WIDTH 21
DEFAULT_CHAR 32
FONT_DESCENT 7
FONT_ASCENT 29
ENDPROPERTIES

CHARS 190

STARTCHAR space
ENCODING 32
SWIDTH 280 0
DWIDTH 9 0
BBX 1 1 0 0
BITMAP
00
ENDCHAR

STARTCHAR exclam
ENCODING 33
SWIDTH 280 0
DWIDTH 9 0
BBX 9 25 3 0
BITMAP
0F80
0F80
0F80
0F00
0F00
1F00
1F00
1F00
1E00
1E00
3E00
3E00
3E00
3C00
3C00
7C00
7C00
7C00
7800
0000
0000
F800
F800
F800
F800
ENDCHAR

STARTCHAR quotedbl
ENCODING 34
SWIDTH 360 0
DWIDTH 12 0
BBX 8 8 6 17
BITMAP
77
77
77
66
66
EE
EE
EE
ENDCHAR

STARTCHAR numbersign
ENCODING 35
SWIDTH 600 0
DWIDTH 19 0
BBX 17 24 3 0
BITMAP
00E380
00E380
01C700
01C700
01C700
038E00
038E00
3FFF80
3FFF80
3FFF80
071C00
0E3800
0E3800
7FFF00
7FFF00
7FFF00
1C7000
38E000
38E000
71C000
71C000
71C000
E38000
E38000
ENDCHAR

STARTCHAR dollar
ENCODING 36
SWIDTH 560 0
DWIDTH 18 0
BBX 16 30 3 -3
BITMAP
00F0
00F0
00F0
00F0
01FC
07FE
0FFE
0FFF
1F1F
1E1F
1E00
1F00
1FC0
0FF0
07F8
03FC
00FC
007E
003E
F03E
F03E
F87C
7FFC
7FF8
3FF0
1FC0
0F00
0F00
0F00
0F00
ENDCHAR

STARTCHAR percent
ENCODING 37
SWIDTH 860 0
DWIDTH 28 0
BBX 23 25 4 0
BITMAP
0F0000
3FC078
7FC0F0
7FE0E0
F1E1C0
E0E3C0
E0E380
F1E780
FFCF00
FFCE00
7F9E00
1E1C00
003C00
0078F0
0073FC
00F7FC
00E7FE
01CF1E
03CE0E
038E0E
078F1E
0F0FFC
0E0FFC
1E07F8
0001E0
ENDCHAR

STARTCHAR ampersand
ENCODING 38
SWIDTH 680 0
DWIDTH 23 0
BBX 23 25 2 0
BITMAP
003E00
00FF00
01FF80
03FF80
03CF80
078780
078780
07CF00
07DF00
07FE00
03F83E
07F07C
1FF878
3FF8F0
7E7DF0
7C3FE0
FC3FC0
F81F80
F80FC0
F81FE0
FC3FE0
7FFFF0
7FF9F0
3FF0E0
0FC040
ENDCHAR

STARTCHAR quoteright
ENCODING 39
SWIDTH 280 0
DWIDTH 9 0
BBX 6 9 5 16
BITMAP
7C
7C
7C
7C
18
38
70
E0
C0
ENDCHAR

STARTCHAR parenleft
ENCODING 40
SWIDTH 380 0
DWIDTH 13 0
BBX 14 29 4 -4
BITMAP
003C
00F8
01F0
03E0
07C0
0FC0
0F80
1F00
3E00
3C00
7C00
7C00
7800
F800
F000
F000
F000
F000
F000
F000
F800
F800
7C00
7E00
3E00
3E00
1E00
0E00
0600
ENDCHAR

STARTCHAR parenright
ENCODING 41
SWIDTH 380 0
DWIDTH 13 0
BBX 14 29 0 -4
BITMAP
0180
01C0
01E0
01F0
01F0
01F8
00F8
007C
007C
003C
003C
003C
003C
003C
003C
007C
0078
00F8
00F8
01F0
01F0
03E0
07C0
07C0
0F80
1F00
3E00
7C00
F000
ENDCHAR

STARTCHAR asterisk
ENCODING 42
SWIDTH 440 0
DWIDTH 15 0
BBX 10 10 6 15
BITMAP
1100
3B80
1F00
1E00
FFC0
FFC0
3C00
3E00
7600
6600
ENDCHAR

STARTCHAR plus
ENCODING 43
SWIDTH 600 0
DWIDTH 20 0
BBX 17 17 3 2
BITMAP
00F000
00F000
00F000
01E000
01E000
01E000
FFFF80
FFFF80
FFFF80
FFFF80
03C000
03C000
03C000
078000
078000
078000
078000
ENDCHAR

STARTCHAR comma
ENCODING 44
SWIDTH 280 0
DWIDTH 9 0
BBX 6 9 2 -5
BITMAP
7C
7C
7C
7C
18
38
70
E0
C0
ENDCHAR

STARTCHAR minus
ENCODING 45
SWIDTH 600 0
DWIDTH 19 0
BBX 17 4 3 9
BITMAP
FFFF80
FFFF80
FFFF80
FFFF80
ENDCHAR

STARTCHAR period
ENCODING 46
SWIDTH 280 0
DWIDTH 9 0
BBX 5 4 3 0
BITMAP
F8
F8
F8
F8
ENDCHAR

STARTCHAR slash
ENCODING 47
SWIDTH 460 0
DWIDTH 15 0
BBX 18 29 1 -4
BITMAP
0001C0
0001C0
000380
000780
000700
000F00
000E00
001E00
001C00
003800
007800
007000
00F000
00E000
01E000
01C000
03C000
038000
070000
0F0000
0E0000
1E0000
1C0000
3C0000
380000
700000
700000
E00000
E00000
ENDCHAR

STARTCHAR zero
ENCODING 48
SWIDTH 560 0
DWIDTH 18 0
BBX 19 25 2 0
BITMAP
00FE00
03FF80
07FF80
0FFFC0
1FC7C0
1F03E0
3E03E0
3E03E0
3C03E0
3C03E0
3C03C0
7C07C0
7C07C0
7807C0
780780
780F80
F80F80
F80F80
F81F00
F81F00
FC7E00
7FFE00
7FFC00
3FF800
0FE000
ENDCHAR

STARTCHAR one
ENCODING 49
SWIDTH 560 0
DWIDTH 18 0
BBX 9 25 8 0
BITMAP
7F80
7F80
7F80
7F00
0F00
0F00
1F00
1E00
1E00
1E00
1E00
3E00
3C00
3C00
3C00
3C00
7C00
7800
7800
7800
7800
F800
F000
F000
F000
ENDCHAR

STARTCHAR two
ENCODING 50
SWIDTH 560 0
DWIDTH 18 0
BBX 19 25 1 0
BITMAP
007F00
01FF80
03FFC0
07FFC0
0FE7E0
0F83E0
1F03E0
1F03E0
1F03E0
0007E0
0007C0
000FC0
001F80
003F00
007E00
00FC00
01F800
03F000
07E000
0F8000
1F0000
3FFF80
7FFF80
FFFF80
FFFF80
ENDCHAR

STARTCHAR three
ENCODING 51
SWIDTH 560 0
DWIDTH 18 0
BBX 17 25 2 0
BITMAP
007C00
01FF00
03FF00
07FF80
07CF80
0F8780
000780
000F80
003F00
01FF00
01FC00
01FE00
01FF00
001F80
000F80
000F80
000F80
F80F80
F80F80
781F00
7E3F00
7FFE00
3FFC00
1FF800
07E000
ENDCHAR

STARTCHAR four
ENCODING 52
SWIDTH 560 0
DWIDTH 18 0
BBX 19 25 1 0
BITMAP
0001E0
0003E0
0007E0
000FC0
001FC0
003FC0
007FC0
007FC0
00F780
01E780
03E780
07CF80
078F80
0F0F00
1E0F00
3E1F00
7C1F00
FFFFC0
FFFFC0
FFFFC0
FFFFC0
003E00
003C00
003C00
003C00
ENDCHAR

STARTCHAR five
ENCODING 53
SWIDTH 560 0
DWIDTH 18 0
BBX 17 25 2 0
BITMAP
03FF80
03FF80
07FF80
07FF80
078000
0F8000
0F0000
0F0000
1E0000
1EF800
1FFE00
3FFF00
3FFF00
3C1F80
000F80
000F80
000F80
000F80
F01F00
F01F00
F87E00
7FFC00
7FF800
3FF000
0FC000
ENDCHAR

STARTCHAR six
ENCODING 54
SWIDTH 560 0
DWIDTH 18 0
BBX 18 25 2 0
BITMAP
000F80
001F80
003F00
007E00
007C00
00F800
01F000
03F000
07E000
07FC00
0FFF00
1FFF80
3FFF80
7F0FC0
7C07C0
F807C0
F807C0
F807C0
F80F80
F80F80
FC3F00
7FFE00
7FFC00
3FF800
0FE000
ENDCHAR

STARTCHAR seven
ENCODING 55
SWIDTH 560 0
DWIDTH 18 0
BBX 18 25 3 0
BITMAP
1FFFC0
1FFFC0
1FFFC0
1FFF80
000F80
000F00
001F00
003E00
003C00
007C00
00F800
00F800
01F000
01E000
03E000
07C000
07C000
0F8000
1F0000
1F0000
3E0000
3E0000
7C0000
F80000
F80000
ENDCHAR

STARTCHAR eight
ENCODING 56
SWIDTH 560 0
DWIDTH 18 0
BBX 17 25 2 0
BITMAP
007C00
01FF00
03FF00
07FF80
07CF80
0F8780
0F0780
0F0780
0F0F00
079F00
03FE00
07FC00
1FFE00
3FFF00
7E1F00
7C0F80
F80F80
F80F80
F80F80
F81F00
FC3F00
7FFE00
7FFC00
3FF800
0FE000
ENDCHAR

STARTCHAR nine
ENCODING 57
SWIDTH 560 0
DWIDTH 18 0
BBX 17 25 4 0
BITMAP
01F800
07FE00
1FFF00
3FFF00
3F1F80
7C0F80
780780
F80780
F00780
F00F80
F00F00
F81F00
FC7F00
7FFE00
7FFC00
3FFC00
0FF800
03F000
07E000
07C000
0F8000
1F0000
3F0000
7E0000
FC0000
ENDCHAR

STARTCHAR colon
ENCODING 58
SWIDTH 280 0
DWIDTH 9 0
BBX 7 17 3 0
BITMAP
3E
3E
3E
3E
00
00
00
00
00
00
00
00
00
F8
F8
F8
F8
ENDCHAR

STARTCHAR semicolon
ENCODING 59
SWIDTH 280 0
DWIDTH 9 0
BBX 8 22 2 -5
BITMAP
1F
1F
1F
1F
00
00
00
00
00
00
00
00
00
7C
7C
7C
7C
18
38
70
E0
C0
ENDCHAR

STARTCHAR less
ENCODING 60
SWIDTH 600 0
DWIDTH 20 0
BBX 17 19 4 1
BITMAP
000080
000380
000F80
003F80
00FE00
03F800
0FE000
3F8000
FE0000
F80000
FC0000
7F0000
1FC000
07E000
03F800
00FE00
003E00
000E00
000200
ENDCHAR

STARTCHAR equal
ENCODING 61
SWIDTH 600 0
DWIDTH 19 0
BBX 19 11 2 5
BITMAP
3FFFE0
3FFFE0
3FFFE0
3FFFE0
000000
000000
000000
FFFF80
FFFF80
FFFF80
FFFF80
ENDCHAR

STARTCHAR greater
ENCODING 62
SWIDTH 600 0
DWIDTH 20 0
BBX 17 19 3 1
BITMAP
200000
380000
3E0000
3F8000
0FE000
03F000
01FC00
007F00
001F80
000F80
003F80
00FE00
03F800
0FE000
3F8000
FE0000
F80000
E00000
800000
ENDCHAR

STARTCHAR question
ENCODING 63
SWIDTH 560 0
DWIDTH 18 0
BBX 15 25 4 0
BITMAP
07E0
1FF8
3FFC
7FFC
7C7E
F83E
F03E
F03E
007C
007C
00F8
01F0
03E0
07C0
0F80
0F00
1F00
1E00
1E00
0000
0000
3E00
3E00
3E00
3E00
ENDCHAR

STARTCHAR at
ENCODING 64
SWIDTH 740 0
DWIDTH 24 0
BBX 26 25 2 0
BITMAP
001FF000
007FFC00
01F87E00
03C00F00
07000780
0E000380
1C0F39C0
387FB9C0
30FFF9C0
71FFF1C0
73E1F1C0
E3C0F1C0
E7C0E180
E781E380
E781E300
E7C3C700
E7FFCE00
E3FFFC00
73FFF000
70E3C000
38003C00
3C00F800
1F83F000
0FFFC000
03FF0000
ENDCHAR

STARTCHAR A
ENCODING 65
SWIDTH 740 0
DWIDTH 24 0
BBX 24 25 0 0
BITMAP
0001C0
0003C0
0003E0
0007E0
000FE0
000FF0
001EF0
003EF0
003CF0
007CF8
00F8F8
00F878
01F078
01E07C
03FFFC
03FFFC
07FFFC
0FFFFC
0F803E
1F003E
1F003E
3E001E
7E001F
7C001F
FC001F
ENDCHAR

STARTCHAR B
ENCODING 66
SWIDTH 580 0
DWIDTH 19 0
BBX 18 25 2 0
BITMAP
07FE00
07FF80
0FFF80
0FFFC0
0F87C0
0F83C0
0F03C0
1F03C0
1F0780
1F1F80
1FFF00
1FFE00
3FFF00
3FFF00
3E0F80
3E0780
3E0780
3C0780
7C0F80
7C1F00
7C7F00
7FFE00
FFFE00
FFF800
FFE000
ENDCHAR

STARTCHAR C
ENCODING 67
SWIDTH 780 0
DWIDTH 25 0
BBX 26 25 3 0
BITMAP
001FE000
007FF800
01FFFE00
03FFFF00
07F87F80
0FE01F80
1F800FC0
3F000000
3E000000
7E000000
7C000000
FC000000
F8000000
F8000000
F8000000
F8000000
F8000000
FC000000
7C007E00
7E00FE00
3F83FC00
1FFFF800
0FFFE000
07FFC000
01FE0000
ENDCHAR

STARTCHAR D
ENCODING 68
SWIDTH 700 0
DWIDTH 23 0
BBX 22 25 2 0
BITMAP
07FE00
07FF80
07FFE0
07FFF0
0F87F0
0F81F8
0F00F8
0F007C
1F007C
1F003C
1F003C
1E003C
1E003C
3E007C
3E007C
3E00F8
3E00F8
3C01F0
7C03F0
7C0FE0
7C3FC0
7FFF80
FFFF00
FFFC00
FFF000
ENDCHAR

STARTCHAR E
ENCODING 69
SWIDTH 520 0
DWIDTH 17 0
BBX 18 25 2 0
BITMAP
0FFFC0
0FFFC0
0FFFC0
0FFFC0
0F0000
1F0000
1F0000
1E0000
1E0000
1E0000
1FFF00
1FFF00
3FFF00
3FFF00
3E0000
3E0000
3C0000
3C0000
7C0000
7C0000
7C0000
7FFC00
FFFC00
FFFC00
FFFC00
ENDCHAR

STARTCHAR F
ENCODING 70
SWIDTH 480 0
DWIDTH 16 0
BBX 17 25 2 0
BITMAP
0FFF80
0FFF80
0FFF80
0FFF80
0F0000
1F0000
1F0000
1F0000
1E0000
1E0000
1FFE00
3FFE00
3FFE00
3FFE00
3E0000
3C0000
3C0000
3C0000
7C0000
7C0000
780000
780000
780000
F80000
F80000
ENDCHAR

STARTCHAR G
ENCODING 71
SWIDTH 840 0
DWIDTH 27 0
BBX 26 25 3 0
BITMAP
001FF000
007FFC00
01FFFE00
03FFFF00
07F87F80
0FE01F80
1F800FC0
1F000FC0
3E000000
3C000000
7C000000
78000000
78000000
F83FFFC0
F83FFFC0
F83FFF80
F83FFF80
FC001F00
7C003F00
7E007E00
3F81FC00
3FFFF800
1FFFF000
07FFC000
01FF0000
ENDCHAR

STARTCHAR H
ENCODING 72
SWIDTH 680 0
DWIDTH 22 0
BBX 22 25 2 0
BITMAP
07803C
07803C
07803C
0F807C
0F807C
0F0078
0F0078
0F0078
1F00F8
1F00F8
1FFFF8
1FFFF0
3FFFF0
3FFFF0
3E01F0
3E01F0
3C01E0
3C01E0
7C03E0
7C03E0
7C03E0
7803C0
F807C0
F807C0
F807C0
ENDCHAR

STARTCHAR I
ENCODING 73
SWIDTH 280 0
DWIDTH 9 0
BBX 10 25 2 0
BITMAP
07C0
07C0
07C0
0780
0F80
0F80
0F80
0F00
1F00
1F00
1F00
1E00
1E00
3E00
3E00
3E00
3C00
3C00
7C00
7C00
7C00
7800
F800
F800
F800
ENDCHAR

STARTCHAR J
ENCODING 74
SWIDTH 480 0
DWIDTH 16 0
BBX 18 25 1 0
BITMAP
0007C0
0007C0
0007C0
000F80
000F80
000F80
000F80
001F00
001F00
001F00
001F00
001F00
003E00
003E00
003E00
003E00
003C00
007C00
007C00
FC7C00
7CF800
7FF800
3FF000
3FE000
0F8000
ENDCHAR

STARTCHAR K
ENCODING 75
SWIDTH 620 0
DWIDTH 20 0
BBX 22 25 2 0
BITMAP
07807C
0780F8
0781F0
0F83E0
0F07C0
0F0F80
0F1F00
1F3E00
1E7C00
1EFC00
1FF800
1FF000
3FE000
3FF000
3FF000
3EF800
3CF800
3CFC00
7C7C00
7C7E00
7C3E00
783F00
F81F00
F81F80
F80FC0
ENDCHAR

STARTCHAR L
ENCODING 76
SWIDTH 440 0
DWIDTH 14 0
BBX 12 25 2 0
BITMAP
0780
0780
0F80
0F80
0F80
0F00
0F00
1F00
1F00
1F00
1F00
1E00
3E00
3E00
3E00
3E00
3C00
3C00
7C00
7C00
7C00
7FF0
FFF0
FFF0
FFF0
ENDCHAR

STARTCHAR M
ENCODING 77
SWIDTH 900 0
DWIDTH 29 0
BBX 30 25 2 0
BITMAP
07E000FC
07E001FC
07E001FC
0FF003FC
0FF003FC
0FF007F8
0FF007F8
1FF00FF8
1F700FF8
1F781EF8
1F781EF0
1E783CF0
3E787CF0
3E7879F0
3E38F9F0
3E3CF1E0
3C3DE1E0
3C3DE1E0
7C1FC3E0
7C1FC3E0
7C1F83E0
781F03C0
F81F03C0
F80E07C0
F80E07C0
ENDCHAR

STARTCHAR N
ENCODING 78
SWIDTH 740 0
DWIDTH 24 0
BBX 24 25 2 0
BITMAP
07800F
07800F
07C00F
0FC00F
0FE01F
0FE01E
0FF01E
0FF01E
1F781E
1F783C
1E7C3C
1E3C3C
1E3C3C
3E3E3C
3E1E78
3C1F78
3C0F78
3C0F78
7C07F0
7C07F0
7807F0
7803F0
F803E0
F801E0
F801E0
ENDCHAR

STARTCHAR O
ENCODING 79
SWIDTH 840 0
DWIDTH 27 0
BBX 26 25 3 0
BITMAP
001FF000
007FFC00
01FFFE00
07FFFF00
0FF07F00
1FC01F80
3F000F80
3E000FC0
7E0007C0
7C0007C0
FC0007C0
F80007C0
F80007C0
F80007C0
F80007C0
F8000F80
F8000F80
FC001F00
7C003F00
7E00FE00
3FC3FC00
1FFFF800
0FFFE000
07FFC000
01FF0000
ENDCHAR

STARTCHAR P
ENCODING 80
SWIDTH 560 0
DWIDTH 18 0
BBX 19 25 2 0
BITMAP
07FE00
07FF80
07FFC0
07FFC0
0F87E0
0F83E0
0F83E0
0F03E0
0F03E0
1F07C0
1F1FC0
1FFF80
1FFF80
3FFE00
3FF800
3E0000
3E0000
3C0000
7C0000
7C0000
7C0000
780000
F80000
F80000
F80000
ENDCHAR

STARTCHAR Q
ENCODING 81
SWIDTH 840 0
DWIDTH 27 0
BBX 26 25 3 0
BITMAP
001FF000
007FFC00
01FFFE00
03FFFF00
07F87F00
0FE01F80
1F800F80
3F0007C0
3E0007C0
7C0003C0
7C0003C0
F80003C0
F80003C0
FFE003C0
FFFC07C0
FFFF0780
FFFF8F80
FC1FDF00
7C07FF00
7E03FE00
3F83FC00
1FFFFF80
0FFFFF80
07FFBF80
01FE0F00
ENDCHAR

STARTCHAR R
ENCODING 82
SWIDTH 580 0
DWIDTH 19 0
BBX 20 25 2 0
BITMAP
07FF00
07FFC0
0FFFE0
0FFFE0
0F83F0
0F81F0
1F01F0
1F01F0
1F01F0
1F03E0
1E03E0
3E0FC0
3FFFC0
3FFF80
3FFE00
3FF000
3DF800
7CF800
7CFC00
7C7C00
7C7E00
783E00
F83F00
F81F00
F81F80
ENDCHAR

STARTCHAR S
ENCODING 83
SWIDTH 520 0
DWIDTH 17 0
BBX 18 25 2 0
BITMAP
00FC00
03FF00
07FF80
0FFF80
0F8FC0
1F07C0
1E07C0
1E0000
1F0000
1FC000
0FF000
0FFC00
07FE00
01FE00
003F00
003F00
001F00
001F00
F83F00
F83E00
FC7E00
FFFC00
7FF800
3FF000
0FC000
ENDCHAR

STARTCHAR T
ENCODING 84
SWIDTH 420 0
DWIDTH 14 0
BBX 13 25 5 0
BITMAP
FFF8
FFF8
FFF8
FFF8
0F00
0F00
0F00
1F00
1F00
1E00
1E00
1E00
1E00
3E00
3C00
3C00
3C00
3C00
7C00
7C00
7800
7800
F800
F800
F800
ENDCHAR

STARTCHAR U
ENCODING 85
SWIDTH 640 0
DWIDTH 21 0
BBX 19 25 4 0
BITMAP
1E01E0
1E01E0
1E01E0
3E03E0
3E03E0
3C03C0
3C03C0
7C07C0
7C07C0
7C07C0
7C07C0
780780
780780
F80F80
F80F80
F80F80
F00F00
F01F00
F01F00
F03E00
F87E00
7FFC00
7FF800
3FF000
1FC000
ENDCHAR

STARTCHAR V
ENCODING 86
SWIDTH 700 0
DWIDTH 23 0
BBX 22 25 5 0
BITMAP
F8007C
F8007C
F800F8
F800F8
7801F0
7C01F0
7C03E0
7C03C0
3C07C0
3C0780
3E0F80
3E0F00
1E1F00
1E1E00
1E3E00
1F3C00
1F7800
0F7800
0FF000
0FF000
0FE000
0FC000
07C000
078000
078000
ENDCHAR

STARTCHAR W
ENCODING 87
SWIDTH 900 0
DWIDTH 29 0
BBX 29 25 5 0
BITMAP
F8078078
F80780F8
F80F80F0
F80F81F0
F81F81E0
F81F83E0
783F83C0
783F83C0
787F87C0
787B8780
78FB8F80
78F38F00
78F39F00
79E39E00
79E39E00
3BC3BC00
3BC3BC00
3FC3F800
3F83F800
3F83F000
3F03F000
3F03F000
3E03E000
3E03E000
3C03C000
ENDCHAR

STARTCHAR X
ENCODING 88
SWIDTH 680 0
DWIDTH 22 0
BBX 25 25 1 0
BITMAP
0F800F80
0FC01F80
07C03F00
07E03E00
03E07C00
03F0F800
01F1F000
01FBE000
00FFC000
00FFC000
007F8000
007F0000
003E0000
007F0000
00FF0000
01FF8000
03F78000
07E7C000
07C7C000
0F83E000
1F83E000
3F01F000
7E01F000
FC00F800
F800F800
ENDCHAR

STARTCHAR Y
ENCODING 89
SWIDTH 620 0
DWIDTH 20 0
BBX 20 25 5 0
BITMAP
F801F0
F803F0
7C03E0
7C07C0
7C0F80
3C0F00
3E1F00
3E3E00
1E3C00
1F7C00
1F7800
0FF000
0FE000
0FE000
07C000
07C000
078000
078000
078000
0F8000
0F0000
0F0000
0F0000
1F0000
1F0000
ENDCHAR

STARTCHAR Z
ENCODING 90
SWIDTH 500 0
DWIDTH 16 0
BBX 19 25 1 0
BITMAP
0FFFE0
0FFFE0
0FFFE0
0FFFC0
000F80
000F80
001F00
003E00
007E00
007C00
00F800
01F000
01F000
03E000
07C000
0FC000
0F8000
1F0000
3E0000
3E0000
7C0000
FFFE00
FFFE00
FFFE00
FFFE00
ENDCHAR

STARTCHAR bracketleft
ENCODING 91
SWIDTH 320 0
DWIDTH 11 0
BBX 11 29 3 -4
BITMAP
0060
01E0
03E0
07E0
0FC0
0F80
1F00
1F00
3E00
3E00
3E00
3C00
7C00
7C00
7800
7800
F800
F000
F000
F000
F000
F000
F000
F800
FC00
7C00
7C00
3C00
0C00
ENDCHAR

STARTCHAR backslash
ENCODING 92
SWIDTH 640 0
DWIDTH 21 0
BBX 9 25 8 0
BITMAP
E000
E000
F000
F000
F000
7000
7800
7800
7800
3800
3C00
3C00
3C00
1C00
1E00
1E00
1E00
0E00
0F00
0F00
0F00
0700
0780
0780
0780
ENDCHAR

STARTCHAR bracketright
ENCODING 93
SWIDTH 320 0
DWIDTH 11 0
BBX 11 29 1 -4
BITMAP
0600
0780
07C0
07C0
07E0
03E0
03E0
03E0
01E0
01E0
01E0
03E0
03C0
03C0
03C0
07C0
07C0
0780
0F80
0F80
0F80
1F00
1F00
3E00
7E00
FC00
F800
F000
C000
ENDCHAR

STARTCHAR asciicircum
ENCODING 94
SWIDTH 600 0
DWIDTH 20 0
BBX 17 15 4 10
BITMAP
00F000
00F000
01F800
03F800
03F800
07FC00
0FBC00
0F3E00
1E1E00
3E1E00
3C0F00
780F00
F80F80
F00780
600600
ENDCHAR

STARTCHAR underscore
ENCODING 95
SWIDTH 500 0
DWIDTH 16 0
BBX 16 3 0 -5
BITMAP
FFFF
FFFF
FFFF
ENDCHAR

STARTCHAR quoteleft
ENCODING 96
SWIDTH 280 0
DWIDTH 9 0
BBX 6 9 6 16
BITMAP
0C
1C
38
70
60
F8
F8
F8
F8
ENDCHAR

STARTCHAR a
ENCODING 97
SWIDTH 660 0
DWIDTH 21 0
BBX 21 19 2 0
BITMAP
00FC78
03FF78
0FFFF8
1FFFF8
3F83F8
3E01F0
7C01F0
7C00F0
F800F0
F800F0
F801E0
F801E0
F803E0
FC07E0
7E0FE0
7FFFC0
3FFFC0
1FFBC0
07E3C0
ENDCHAR

STARTCHAR b
ENCODING 98
SWIDTH 660 0
DWIDTH 21 0
BBX 21 25 2 0
BITMAP
0F8000
0F8000
0F8000
0F0000
0F0000
1F0000
1F1F80
1F7FE0
1FFFF0
1FFFF0
3FC3F8
3F01F8
3E00F8
3C00F8
3C00F8
7C00F8
7800F8
7801F8
7801F0
7C03F0
7E0FE0
FFFFC0
FFFF80
F7FF00
F1FC00
ENDCHAR

STARTCHAR c
ENCODING 99
SWIDTH 640 0
DWIDTH 21 0
BBX 20 19 3 0
BITMAP
01FE00
07FF80
0FFFC0
1FFFE0
3F87E0
3E03F0
7C03F0
7C0000
F80000
F80000
F80000
F80000
F80000
7C07C0
7E0FC0
3FFF80
3FFF00
1FFE00
07F800
ENDCHAR

STARTCHAR d
ENCODING 100
SWIDTH 660 0
DWIDTH 21 0
BBX 23 25 2 0
BITMAP
00003E
00003E
00003E
00003C
00003C
00007C
00FC7C
03FF78
0FFFF8
1FFFF8
3F83F8
3E01F8
7C01F0
7C00F0
F800F0
F800F0
F800F0
F801E0
F801E0
FC03E0
7E0FE0
7FFFE0
3FFFC0
1FFBC0
07E3C0
ENDCHAR

STARTCHAR e
ENCODING 101
SWIDTH 640 0
DWIDTH 21 0
BBX 19 19 3 0
BITMAP
00FC00
03FF00
0FFF80
1FFFC0
3F87C0
3E03E0
7C01E0
7801E0
FFFFE0
FFFFE0
FFFFE0
FFFFE0
F00000
F00000
F81F80
7FFF00
7FFE00
3FFC00
0FE000
ENDCHAR

STARTCHAR f
ENCODING 102
SWIDTH 280 0
DWIDTH 9 0
BBX 12 25 3 0
BITMAP
00F0
03F0
07E0
07E0
0F80
0F00
7FC0
7FC0
7FC0
7FC0
1E00
1E00
1E00
3C00
3C00
3C00
3C00
7C00
7800
7800
7800
F800
F000
F000
F000
ENDCHAR

STARTCHAR g
ENCODING 103
SWIDTH 660 0
DWIDTH 21 0
BBX 22 26 1 -7
BITMAP
007E3C
01FFBC
03FFFC
07FFFC
0FC3FC
1F00FC
1E00F8
3E0078
3C0078
3C0078
3C00F8
3C00F0
3E01F0
3E03F0
1F8FF0
1FFFF0
0FFFE0
07FDE0
01F3E0
0003C0
FC07C0
FE1F80
7FFF80
3FFF00
1FFE00
07F800
ENDCHAR

STARTCHAR h
ENCODING 104
SWIDTH 600 0
DWIDTH 19 0
BBX 19 25 2 0
BITMAP
0F8000
0F8000
0F8000
0F0000
0F0000
1F0000
1F1E00
1F7F80
1FFFC0
1FFFC0
3F87E0
3F03E0
3E03E0
3E03E0
3C03C0
7C03C0
7C07C0
7C07C0
780780
780780
F80780
F80F80
F00F00
F00F00
F00F00
ENDCHAR

STARTCHAR i
ENCODING 105
SWIDTH 240 0
DWIDTH 8 0
BBX 9 25 2 0
BITMAP
0F80
0F80
0F80
0F80
0000
0000
1F00
1F00
1F00
1E00
1E00
3E00
3E00
3C00
3C00
3C00
7C00
7800
7800
7800
7800
F800
F800
F000
F000
ENDCHAR

STARTCHAR j
ENCODING 106
SWIDTH 260 0
DWIDTH 9 0
BBX 12 31 0 -6
BITMAP
01F0
01F0
01F0
01F0
0000
0000
03E0
03E0
03C0
03C0
03C0
07C0
07C0
0780
0780
0780
0F80
0F80
0F00
0F00
0F00
0F00
1F00
1F00
1E00
3E00
7C00
FC00
F800
F000
C000
ENDCHAR

STARTCHAR k
ENCODING 107
SWIDTH 580 0
DWIDTH 19 0
BBX 19 25 2 0
BITMAP
0F8000
0F8000
0F0000
0F0000
0F0000
1F0000
1F03E0
1E07C0
1E0F80
1E1F00
3E3E00
3E7C00
3CF800
3DF000
3FE000
7FC000
7FE000
7BE000
79F000
79F800
78F800
F87C00
F03E00
F03F00
F01F80
ENDCHAR

STARTCHAR l
ENCODING 108
SWIDTH 240 0
DWIDTH 8 0
BBX 9 25 2 0
BITMAP
0F80
0F80
0F00
0F00
0F00
1F00
1F00
1E00
1E00
1E00
3E00
3E00
3C00
3C00
3C00
7C00
7C00
7800
7800
7800
7800
F800
F000
F000
F000
ENDCHAR

STARTCHAR m
ENCODING 109
SWIDTH 940 0
DWIDTH 31 0
BBX 31 19 2 0
BITMAP
1E3E03E0
1EFF8FF8
1FFFDFFC
1FFFFFFC
3F87F87E
3F03F03E
3E03E03E
3E03E03E
3C03C03C
7C03C07C
7C07C07C
7C07C07C
78078078
78078078
780780F8
F80F80F8
F00F00F0
F00F00F0
F00F00F0
ENDCHAR

STARTCHAR n
ENCODING 110
SWIDTH 600 0
DWIDTH 19 0
BBX 19 19 2 0
BITMAP
1E3E00
1EFF80
1FFFC0
1FFFC0
3F87E0
3F03E0
3E03E0
3E03E0
3C03C0
7C03C0
7C07C0
7807C0
780780
780780
F80780
F00F80
F00F00
F00F00
F00F00
ENDCHAR

STARTCHAR o
ENCODING 111
SWIDTH 640 0
DWIDTH 21 0
BBX 20 19 2 0
BITMAP
00FE00
03FF80
07FFC0
0FFFE0
1FC7E0
3F03F0
3E01F0
7C01F0
7C01F0
F801F0
F801F0
F803E0
F803E0
FC07C0
7E1FC0
7FFF80
3FFF00
1FFC00
07F000
ENDCHAR

STARTCHAR p
ENCODING 112
SWIDTH 660 0
DWIDTH 21 0
BBX 22 25 1 -6
BITMAP
0F1F80
0F7FE0
0FFFF0
0FFFF8
1FE1F8
1F80FC
1F007C
1F007C
1E007C
3E007C
3E007C
3C00F8
3C00F8
3E01F0
3F07F0
7FFFE0
7FFFC0
7BFF00
78FC00
780000
F80000
F80000
F00000
F00000
F00000
ENDCHAR

STARTCHAR q
ENCODING 113
SWIDTH 660 0
DWIDTH 21 0
BBX 21 25 3 -6
BITMAP
01F8F8
07FEF8
1FFFF8
3FFFF0
3F07F0
7C03F0
7801E0
F001E0
F001E0
F001E0
F003E0
F003C0
F807C0
F80FC0
7E3FC0
7FFFC0
3FFFC0
1FF780
07C780
000780
000780
000F80
000F00
000F00
000F00
ENDCHAR

STARTCHAR r
ENCODING 114
SWIDTH 320 0
DWIDTH 10 0
BBX 12 19 2 0
BITMAP
1E70
1EF0
1FF0
1FE0
3F80
3F00
3E00
3E00
3C00
7C00
7C00
7800
7800
7800
7800
F800
F000
F000
F000
ENDCHAR

STARTCHAR s
ENCODING 115
SWIDTH 440 0
DWIDTH 14 0
BBX 14 19 2 0
BITMAP
01E0
07F8
0FF8
0FFC
1F3C
1E00
1F00
1F80
0FE0
0FF0
03F0
00F8
0078
F878
FCF8
7FF0
7FF0
3FE0
0F80
ENDCHAR

STARTCHAR t
ENCODING 116
SWIDTH 300 0
DWIDTH 10 0
BBX 10 25 3 0
BITMAP
0780
0780
0780
0F00
0F00
0F00
7FC0
7FC0
7FC0
7FC0
1E00
1E00
1E00
3C00
3C00
3C00
7C00
7C00
7800
7800
7800
F800
F000
F000
F000
ENDCHAR

STARTCHAR u
ENCODING 117
SWIDTH 600 0
DWIDTH 20 0
BBX 19 19 3 0
BITMAP
3E03E0
3E03E0
3E03E0
3C03C0
3C07C0
7C07C0
7C07C0
7C0780
780780
780F80
F80F80
F80F80
F81F00
F81F00
FC7F00
7FFF00
7FFE00
3FDE00
0F9E00
ENDCHAR

STARTCHAR v
ENCODING 118
SWIDTH 560 0
DWIDTH 18 0
BBX 17 19 4 0
BITMAP
F00F80
F00F80
F81F00
F81F00
F81E00
783E00
783C00
7C7800
7C7800
3CF000
3CF000
3DE000
3FE000
3FC000
1FC000
1F8000
1F0000
0F0000
0E0000
ENDCHAR

STARTCHAR w
ENCODING 119
SWIDTH 800 0
DWIDTH 26 0
BBX 25 19 4 0
BITMAP
F81E0780
F81E0F80
F83E0F00
F83E1F00
787E1E00
787E1E00
787E3C00
7CFF3C00
7CEF3800
7DEF7800
3DCF7000
3FCFF000
3F8FE000
3F87E000
3F07C000
1E07C000
1E078000
1C078000
1C070000
ENDCHAR

STARTCHAR x
ENCODING 120
SWIDTH 560 0
DWIDTH 18 0
BBX 20 19 1 0
BITMAP
0F81F0
0F83E0
0787C0
07C780
03CF00
03DE00
01FE00
01FC00
00F800
00F000
01F800
03FC00
07FC00
0FBE00
1F3E00
1E1F00
3C1F00
7C0F80
F80F80
ENDCHAR

STARTCHAR y
ENCODING 121
SWIDTH 580 0
DWIDTH 19 0
BBX 19 25 3 -6
BITMAP
FC03E0
FC07C0
7C07C0
7C0F80
7C0F00
3C1F00
3E1E00
3E3E00
3E3C00
1E7800
1E7800
1FF000
1FF000
1FE000
0FC000
0FC000
0F8000
0F8000
1F0000
1F0000
3E0000
7C0000
7C0000
F80000
F80000
ENDCHAR

STARTCHAR z
ENCODING 122
SWIDTH 460 0
DWIDTH 15 0
BBX 17 19 1 0
BITMAP
1FFF80
1FFF80
1FFF80
1FFF80
001F00
003E00
007C00
00F800
01F000
03E000
07C000
0F8000
1F0000
3E0000
7C0000
FFFE00
FFFE00
FFFE00
FFFE00
ENDCHAR

STARTCHAR braceleft
ENCODING 123
SWIDTH 340 0
DWIDTH 11 0
BBX 10 30 4 -4
BITMAP
03C0
0700
0F00
0E00
0E00
1E00
1E00
1E00
1C00
3C00
3C00
3800
3800
7000
E000
7000
7000
7800
7800
7800
7000
F000
F000
F000
E000
E000
E000
E000
E000
7800
ENDCHAR

STARTCHAR bar
ENCODING 124
SWIDTH 600 0
DWIDTH 20 0
BBX 8 25 8 0
BITMAP
0F
0F
0F
0F
0F
1E
1E
1E
1E
1E
3C
3C
3C
3C
3C
3C
78
78
78
78
78
F0
F0
F0
F0
ENDCHAR

STARTCHAR braceright
ENCODING 125
SWIDTH 340 0
DWIDTH 11 0
BBX 10 30 0 -4
BITMAP
0780
01C0
01C0
01C0
01C0
01C0
03C0
03C0
03C0
0380
0780
0780
0780
0380
0380
01C0
0380
0700
0700
0F00
0F00
0E00
1E00
1E00
1E00
1C00
1C00
3C00
3800
F000
ENDCHAR

STARTCHAR asciitilde
ENCODING 126
SWIDTH 600 0
DWIDTH 19 0
BBX 17 6 3 8
BITMAP
0F0380
3FE780
7FFF00
7FFF00
F3FE00
E07800
ENDCHAR

STARTCHAR exclamdown
ENCODING 161
SWIDTH 280 0
DWIDTH 9 0
BBX 9 25 2 -6
BITMAP
0F80
0F80
0F80
0F80
0000
0000
0000
1E00
1E00
1E00
3E00
3E00
3C00
3C00
3C00
7C00
7C00
7800
7800
7800
F800
F800
F000
F000
F000
ENDCHAR

STARTCHAR cent
ENCODING 162
SWIDTH 560 0
DWIDTH 18 0
BBX 16 22 3 1
BITMAP
00F0
00F0
00F0
03F8
0FFE
1FFE
3FFF
7E1F
7C0F
F800
F800
F800
F800
FC7E
7FFE
7FFC
3FF8
1FE0
0780
0780
0780
0780
ENDCHAR

STARTCHAR sterling
ENCODING 163
SWIDTH 560 0
DWIDTH 18 0
BBX 19 25 2 0
BITMAP
007E00
01FF80
03FFC0
07FFC0
0FC7E0
0F83E0
1F03E0
1F0000
1E0000
1E0000
1F0000
7FFC00
7FFC00
7FFC00
7FFC00
07C000
03E3E0
03E3E0
03E3E0
03C7C0
07CF80
FFFF80
FFFF00
FFFE00
FFF800
ENDCHAR

STARTCHAR currency
ENCODING 164
SWIDTH 600 0
DWIDTH 18 0
BBX 19 17 2 5
BITMAP
040000
0E7E40
1FFFE0
0FFFE0
1FFFC0
3F87C0
3E03E0
7C03E0
7C03E0
7C03E0
7C03C0
3C07C0
3E1F80
7FFF80
FFFFC0
7FFF80
23F100
ENDCHAR

STARTCHAR yen
ENCODING 165
SWIDTH 560 0
DWIDTH 18 0
BBX 22 25 2 0
BITMAP
3E007C
3E00FC
1F00F8
1F01F0
1F03E0
0F03E0
0F87C0
0F8F80
0F8F80
7FDFE0
7FFFE0
7FFFE0
03FC00
03F800
01F000
01F000
FFFFC0
FFFFC0
FFFFC0
03E000
03E000
03C000
03C000
07C000
07C000
ENDCHAR

STARTCHAR brokenbar
ENCODING 166
SWIDTH 600 0
DWIDTH 19 0
BBX 8 25 8 0
BITMAP
0F
0F
0F
0F
0F
0F
1E
1E
1E
1E
00
00
00
00
78
78
78
78
78
78
F0
F0
F0
F0
F0
ENDCHAR

STARTCHAR section
ENCODING 167
SWIDTH 560 0
DWIDTH 18 0
BBX 19 31 2 -5
BITMAP
007E00
01FF80
03FFC0
03FFC0
07C7E0
0783E0
078000
07C000
03F000
0FF800
1FFE00
3EFF80
3C7F80
7C1FC0
7C07C0
7E03C0
3F83C0
3FC780
1FEF80
0FFF00
03FE00
00FC00
007C00
003E00
F81E00
F81E00
FC3E00
7FFC00
7FFC00
3FF800
0FE000
ENDCHAR

STARTCHAR dieresis
ENCODING 168
SWIDTH 500 0
DWIDTH 16 0
BBX 12 4 7 21
BITMAP
F9F0
F9F0
F9F0
F9F0
ENDCHAR

STARTCHAR copyright
ENCODING 169
SWIDTH 740 0
DWIDTH 24 0
BBX 26 25 2 0
BITMAP
001FE000
00FFF800
01F07E00
07C01F00
0F000700
1E0F8380
1C3FE380
3878E180
70E071C0
71E071C0
61C001C0
63C001C0
E38001C0
E3800180
E3800380
E3C0E380
E1C0E300
61E3C700
70FF8E00
703E1C00
38003800
3C00F000
1F07E000
0FFF8000
03FE0000
ENDCHAR

STARTCHAR ordfeminine
ENCODING 170
SWIDTH 360 0
DWIDTH 12 0
BBX 13 14 3 11
BITMAP
07B8
1FF8
3CF0
3870
7070
7070
7060
78E0
3FE0
1F60
0000
0000
FFC0
FFC0
ENDCHAR

STARTCHAR guillemotleft
ENCODING 171
SWIDTH 460 0
DWIDTH 15 0
BBX 15 11 3 6
BITMAP
0306
070E
1E3C
3C78
78F0
F1E0
F1E0
70E0
3870
3C78
1C38
ENDCHAR

STARTCHAR logicalnot
ENCODING 172
SWIDTH 600 0
DWIDTH 19 0
BBX 17 10 3 4
BITMAP
FFFF80
FFFF80
FFFF80
FFFF80
000F00
000F00
000F00
000E00
001E00
001E00
ENDCHAR

STARTCHAR hyphen
ENCODING 173
SWIDTH 420 0
DWIDTH 14 0
BBX 9 4 5 9
BITMAP
FF80
FF80
FF80
FF80
ENDCHAR

STARTCHAR registered
ENCODING 174
SWIDTH 740 0
DWIDTH 24 0
BBX 26 25 2 0
BITMAP
001FE000
00FFF800
01F07E00
07C01F00
0F000700
1E000380
1C7F8380
387FE180
70E0F1C0
70E071C0
60C071C0
60C0F1C0
E1FFE1C0
E1FF8180
E1C70380
E1870380
E1830300
63830700
73838E00
73839C00
38003800
3C00F000
1F07E000
0FFF8000
03FE0000
ENDCHAR

STARTCHAR macron
ENCODING 175
SWIDTH 420 0
DWIDTH 14 0
BBX 9 4 7 20
BITMAP
FF80
FF80
FF80
FF80
ENDCHAR

STARTCHAR degree
ENCODING 176
SWIDTH 400 0
DWIDTH 13 0
BBX 10 10 5 15
BITMAP
0F00
3F80
71C0
60C0
C0C0
C0C0
C180
E380
7F00
3C00
ENDCHAR

STARTCHAR plusminus
ENCODING 177
SWIDTH 600 0
DWIDTH 19 0
BBX 19 19 1 0
BITMAP
007800
007800
007800
007800
007800
3FFFE0
3FFFE0
3FFFE0
3FFFE0
00F000
00F000
00F000
00F000
000000
000000
FFFF80
FFFF80
FFFF80
FFFF80
ENDCHAR

STARTCHAR twosuperior
ENCODING 178
SWIDTH 336 0
DWIDTH 11 0
BBX 13 15 2 10
BITMAP
03C0
0FF0
1FF0
1CF8
3878
3878
00F0
01E0
03C0
0F80
1E00
3C00
7FE0
FFE0
FFE0
ENDCHAR

STARTCHAR threesuperior
ENCODING 179
SWIDTH 336 0
DWIDTH 11 0
BBX 11 15 3 10
BITMAP
0780
1FC0
3FE0
38E0
00E0
01C0
0780
07C0
01E0
00E0
E0E0
E1E0
FFC0
7F80
3E00
ENDCHAR

STARTCHAR acute
ENCODING 180
SWIDTH 420 0
DWIDTH 14 0
BBX 10 7 7 20
BITMAP
0180
0780
1FC0
7F80
FE00
7800
6000
ENDCHAR

STARTCHAR mu
ENCODING 181
SWIDTH 576 0
DWIDTH 19 0
BBX 21 25 1 -6
BITMAP
0F80F8
0F80F8
0F80F8
0F00F0
1F01F0
1F01F0
1F01F0
1F01F0
1E01E0
3E03E0
3E03E0
3E03E0
3E07C0
3E07C0
3F1FC0
7FFFC0
7FFF80
7FFF80
79E780
780000
F80000
F80000
F00000
F00000
F00000
ENDCHAR

STARTCHAR paragraph
ENCODING 182
SWIDTH 600 0
DWIDTH 19 0
BBX 18 29 4 -4
BITMAP
03FFC0
0FFFC0
1FFF80
3FFF80
7FE380
7FE380
FFE380
FFC780
FFC700
FFC700
7FCF00
7FCF00
3FCF00
0F8E00
038E00
038E00
079E00
079E00
071C00
071C00
071C00
0F3C00
0F3C00
0E3C00
0E3800
0E3800
1E7800
1E7800
1E7800
ENDCHAR

STARTCHAR periodcentered
ENCODING 183
SWIDTH 280 0
DWIDTH 9 0
BBX 4 4 4 9
BITMAP
F0
F0
F0
F0
ENDCHAR

STARTCHAR cedilla
ENCODING 184
SWIDTH 340 0
DWIDTH 11 0
BBX 7 8 1 -7
BITMAP
20
20
7C
7E
06
CE
FC
78
ENDCHAR

STARTCHAR onesuperior
ENCODING 185
SWIDTH 336 0
DWIDTH 11 0
BBX 5 15 7 10
BITMAP
F8
F8
F8
38
38
38
70
70
70
70
70
E0
E0
E0
E0
ENDCHAR

STARTCHAR ordmasculine
ENCODING 186
SWIDTH 360 0
DWIDTH 12 0
BBX 12 14 3 11
BITMAP
07C0
1FE0
3CF0
3870
7070
7070
7060
79E0
3FC0
1F00
0000
0000
FFC0
FFC0
ENDCHAR

STARTCHAR guillemotright
ENCODING 187
SWIDTH 460 0
DWIDTH 15 0
BBX 15 11 1 6
BITMAP
3870
3C78
1C38
0E1C
0F1E
0F1E
1E3C
3C78
78F0
E1C0
C180
ENDCHAR

STARTCHAR onequarter
ENCODING 188
SWIDTH 840 0
DWIDTH 27 0
BBX 22 25 5 0
BITMAP
F801E0
F803C0
F80380
380700
380F00
380E00
701E00
701C00
703800
707800
70701C
E0F03C
E0E07C
E1C0F8
E3C1F8
0383B8
078338
070738
0E0E70
0E1C70
1C3FF8
3C3FF8
383FF8
7000E0
F000E0
ENDCHAR

STARTCHAR onehalf
ENCODING 189
SWIDTH 840 0
DWIDTH 27 0
BBX 23 25 5 0
BITMAP
F803C0
F80380
F80780
380F00
380E00
381E00
701C00
703800
707800
707000
70F0F0
E0E3FC
E1C7FE
E3CF1E
E38E0E
07801E
07003C
0E00F8
1E01F0
1C03C0
3C0780
380F00
781FF8
703FF8
F03FF8
ENDCHAR

STARTCHAR threequarters
ENCODING 190
SWIDTH 840 0
DWIDTH 27 0
BBX 26 25 3 0
BITMAP
07801E00
1FC01C00
3FE03C00
38E03800
00E07000
01C07000
0780E000
07C1E000
01E1C000
00E38000
00E381C0
E0E703C0
E1CF07C0
FFCE0F80
7F9E1F80
3E1C3B80
00383380
00787380
0070E700
00F1C700
00E3FF80
01C3FF80
03C3FF80
03800E00
07800E00
ENDCHAR

STARTCHAR questiondown
ENCODING 191
SWIDTH 560 0
DWIDTH 18 0
BBX 15 25 3 -6
BITMAP
00F8
00F8
00F8
00F8
0000
0000
0000
01E0
01E0
03E0
07C0
0FC0
1F80
3F00
7E00
7C00
F800
F000
F03E
F07C
F8FC
FFF8
7FF0
7FE0
1F80
ENDCHAR

STARTCHAR Agrave
ENCODING 192
SWIDTH 740 0
DWIDTH 24 0
BBX 24 33 0 0
BITMAP
001800
001E00
003F80
001FE0
0007F0
0001E0
0000C0
000000
0001C0
0003C0
0003E0
0007E0
000FE0
000FF0
001EF0
003EF0
003CF0
007CF8
00F8F8
00F878
01F078
01E07C
03FFFC
03FFFC
07FFFC
0FFFFC
0F803E
1F003E
1F003E
3E001E
7E001F
7C001F
FC001F
ENDCHAR

STARTCHAR Aacute
ENCODING 193
SWIDTH 740 0
DWIDTH 24 0
BBX 24 33 0 0
BITMAP
00000C
00003C
0000FE
0001FC
0007F0
0003E0
000180
000000
0001C0
0003C0
0003E0
0007E0
000FE0
000FF0
001EF0
003EF0
003CF0
007CF8
00F8F8
00F878
01F078
01E07C
03FFFC
03FFFC
07FFFC
0FFFFC
0F803E
1F003E
1F003E
3E001E
7E001F
7C001F
FC001F
ENDCHAR

STARTCHAR Acircumflex
ENCODING 194
SWIDTH 740 0
DWIDTH 24 0
BBX 24 32 0 0
BITMAP
0001F0
0003F8
0007FC
000F3E
001E1E
000000
000000
0001C0
0003C0
0003E0
0007E0
000FE0
000FF0
001EF0
003EF0
003CF0
007CF8
00F8F8
00F878
01F078
01E07C
03FFFC
03FFFC
07FFFC
0FFFFC
0F803E
1F003E
1F003E
3E001E
7E001F
7C001F
FC001F
ENDCHAR

STARTCHAR Atilde
ENCODING 195
SWIDTH 740 0
DWIDTH 24 0
BBX 24 31 0 0
BITMAP
000F90
001FF8
001FF8
0009F0
000000
000000
0001C0
0003C0
0003E0
0007E0
000FE0
000FF0
001EF0
003EF0
003CF0
007CF8
00F8F8
00F878
01F078
01E07C
03FFFC
03FFFC
07FFFC
0FFFFC
0F803E
1F003E
1F003E
3E001E
7E001F
7C001F
FC001F
ENDCHAR

STARTCHAR Adieresis
ENCODING 196
SWIDTH 740 0
DWIDTH 24 0
BBX 24 31 0 0
BITMAP
001F3E
001F3E
001F3E
001F3E
000000
000000
0001C0
0003C0
0003E0
0007E0
000FE0
000FF0
001EF0
003EF0
003CF0
007CF8
00F8F8
00F878
01F078
01E07C
03FFFC
03FFFC
07FFFC
0FFFFC
0F803E
1F003E
1F003E
3E001E
7E001F
7C001F
FC001F
ENDCHAR

STARTCHAR Aring
ENCODING 197
SWIDTH 740 0
DWIDTH 24 0
BBX 24 32 0 0
BITMAP
0001E0
0003F0
000630
000630
0007E0
0003C0
000000
0001C0
0003C0
0003E0
0007E0
000FE0
000FF0
001EF0
003EF0
003CF0
007CF8
00F8F8
00F878
01F078
01E07C
03FFFC
03FFFC
07FFFC
0FFFFC
0F803E
1F003E
1F003E
3E001E
7E001F
7C001F
FC001F
ENDCHAR

STARTCHAR AE
ENCODING 198
SWIDTH 900 0
DWIDTH 29 0
BBX 32 25 1 0
BITMAP
00001FFF
00003FFF
00007FFF
0000FFFF
0000FF00
0001FF00
0003EF00
0007CE00
0007DE00
000F9E00
001F1FF8
003F3FF8
003E3FF8
007C3FF8
00F87C00
01FFFC00
01FFF800
03FFF800
07FFF800
0FC0F800
1F80F000
3F00FFF0
3F01FFF0
7E01FFF0
FC01FFF0
ENDCHAR

STARTCHAR Ccedilla
ENCODING 199
SWIDTH 780 0
DWIDTH 25 0
BBX 25 32 3 -7
BITMAP
001FF000
007FFC00
01FFFE00
03FFFF00
07F87F00
0FE01F80
1F800F80
3F000000
3E000000
7C000000
7C000000
FC000000
F8000000
F8000000
F8000000
F8000000
F8000000
FC000000
FC007E00
7E00FE00
7F83FC00
3FFFF800
1FFFE000
07FFC000
01FE0000
00600000
00F80000
00FC0000
000C0000
019C0000
01F80000
00F00000
ENDCHAR

STARTCHAR Egrave
ENCODING 200
SWIDTH 520 0
DWIDTH 17 0
BBX 18 33 2 0
BITMAP
020000
078000
0FE000
07F800
01FC00
007800
003000
000000
0FFFC0
0FFFC0
0FFFC0
0FFFC0
0F0000
1F0000
1F0000
1E0000
1E0000
1E0000
1FFF00
1FFF00
3FFF00
3FFF00
3E0000
3E0000
3C0000
3C0000
7C0000
7C0000
7C0000
7FFC00
FFFC00
FFFC00
FFFC00
ENDCHAR

STARTCHAR Eacute
ENCODING 201
SWIDTH 520 0
DWIDTH 17 0
BBX 18 33 2 0
BITMAP
000180
000780
001FC0
007F80
00FE00
007800
002000
000000
0FFFC0
0FFFC0
0FFFC0
0FFFC0
0F0000
1F0000
1F0000
1E0000
1E0000
1E0000
1FFF00
1FFF00
3FFF00
3FFF00
3E0000
3E0000
3C0000
3C0000
7C0000
7C0000
7C0000
7FFC00
FFFC00
FFFC00
FFFC00
ENDCHAR

STARTCHAR Ecircumflex
ENCODING 202
SWIDTH 520 0
DWIDTH 17 0
BBX 18 32 2 0
BITMAP
003E00
007F00
00FF80
01E7C0
03C3C0
000000
000000
0FFFC0
0FFFC0
0FFFC0
0FFFC0
0F0000
1F0000
1F0000
1E0000
1E0000
1E0000
1FFF00
1FFF00
3FFF00
3FFF00
3E0000
3E0000
3C0000
3C0000
7C0000
7C0000
7C0000
7FFC00
FFFC00
FFFC00
FFFC00
ENDCHAR

STARTCHAR Edieresis
ENCODING 203
SWIDTH 520 0
DWIDTH 17 0
BBX 18 31 2 0
BITMAP
07CF80
07CF80
07CF80
07CF80
000000
000000
0FFFC0
0FFFC0
0FFFC0
0FFFC0
0F0000
1F0000
1F0000
1E0000
1E0000
1E0000
1FFF00
1FFF00
3FFF00
3FFF00
3E0000
3E0000
3C0000
3C0000
7C0000
7C0000
7C0000
7FFC00
FFFC00
FFFC00
FFFC00
ENDCHAR

STARTCHAR Igrave
ENCODING 204
SWIDTH 280 0
DWIDTH 9 0
BBX 11 33 2 0
BITMAP
1000
3C00
7F00
3FC0
0FE0
03C0
0180
0000
07C0
07C0
07C0
0780
0F80
0F80
0F80
0F00
1F00
1F00
1F00
1E00
1E00
3E00
3E00
3E00
3C00
3C00
7C00
7C00
7C00
7800
F800
F800
F800
ENDCHAR

STARTCHAR Iacute
ENCODING 205
SWIDTH 280 0
DWIDTH 9 0
BBX 15 33 2 0
BITMAP
000C
003C
007E
01FC
07F0
03C0
0180
0000
07C0
07C0
07C0
0780
0F80
0F80
0F80
0F00
1F00
1F00
1F00
1E00
1E00
3E00
3E00
3E00
3C00
3C00
7C00
7C00
7C00
7800
F800
F800
F800
ENDCHAR

STARTCHAR Icircumflex
ENCODING 206
SWIDTH 280 0
DWIDTH 9 0
BBX 14 32 2 0
BITMAP
03E0
07F0
0FF8
1E7C
3C3C
0000
0000
07C0
07C0
07C0
0780
0F80
0F80
0F80
0F00
1F00
1F00
1F00
1E00
1E00
3E00
3E00
3E00
3C00
3C00
7C00
7C00
7C00
7800
F800
F800
F800
ENDCHAR

STARTCHAR Idieresis
ENCODING 207
SWIDTH 280 0
DWIDTH 9 0
BBX 14 31 2 0
BITMAP
3E7C
3E7C
3E7C
3E7C
0000
0000
07C0
07C0
07C0
0780
0F80
0F80
0F80
0F00
1F00
1F00
1F00
1E00
1E00
3E00
3E00
3E00
3C00
3C00
7C00
7C00
7C00
7800
F800
F800
F800
ENDCHAR

STARTCHAR Eth
ENCODING 208
SWIDTH 742 0
DWIDTH 24 0
BBX 24 25 2 0
BITMAP
03FFC0
03FFF0
03FFF8
03FFFC
07FFFE
07C07E
07C03F
07C01F
0F801F
0F801F
0F801F
FFF01F
FFF01F
FFF01F
FFF03F
1F003E
1F007E
1F007C
3E00FC
3E03F8
3E1FF0
3FFFE0
7FFFC0
7FFF00
7FFC00
ENDCHAR

STARTCHAR Ntilde
ENCODING 209
SWIDTH 740 0
DWIDTH 24 0
BBX 25 31 2 0
BITMAP
001F2000
003FF000
003FF000
0013E000
00000000
00000000
07C00F80
07C00F80
07E00F80
07E00F00
0FF01F00
0FF01F00
0FF01E00
0FF81E00
1F781E00
1F783E00
1E7C3E00
1E3C3C00
3E3E3C00
3E3E7C00
3E1E7C00
3C1F7800
3C0F7800
3C0F7800
7C0FF800
7C07F800
7807F000
7807F000
F803F000
F803F000
F803F000
ENDCHAR

STARTCHAR Ograve
ENCODING 210
SWIDTH 840 0
DWIDTH 27 0
BBX 26 33 3 0
BITMAP
00100000
003C0000
007F0000
003FC000
000FE000
0003C000
00008000
00000000
001FF000
007FFC00
01FFFE00
07FFFF00
0FF07F00
1FC01F80
3F000F80
3E000FC0
7E0007C0
7C0007C0
FC0007C0
F80007C0
F80007C0
F80007C0
F80007C0
F8000F80
F8000F80
FC001F00
7C003F00
7E00FE00
3FC3FC00
1FFFF800
0FFFE000
07FFC000
01FF0000
ENDCHAR

STARTCHAR Oacute
ENCODING 211
SWIDTH 840 0
DWIDTH 27 0
BBX 26 33 3 0
BITMAP
00001800
00007800
0001FC00
0007F800
000FE000
00078000
00020000
00000000
001FF000
007FFC00
01FFFE00
07FFFF00
0FF07F00
1FC01F80
3F000F80
3E000FC0
7E0007C0
7C0007C0
FC0007C0
F80007C0
F80007C0
F80007C0
F80007C0
F8000F80
F8000F80
FC001F00
7C003F00
7E00FE00
3FC3FC00
1FFFF800
0FFFE000
07FFC000
01FF0000
ENDCHAR

STARTCHAR Ocircumflex
ENCODING 212
SWIDTH 840 0
DWIDTH 27 0
BBX 26 32 3 0
BITMAP
0003E000
0007F000
000FF800
001E7C00
003C3C00
00000000
00000000
001FF000
007FFC00
01FFFE00
07FFFF00
0FF07F00
1FC01F80
3F000F80
3E000FC0
7E0007C0
7C0007C0
FC0007C0
F80007C0
F80007C0
F80007C0
F80007C0
F8000F80
F8000F80
FC001F00
7C003F00
7E00FE00
3FC3FC00
1FFFF800
0FFFE000
07FFC000
01FF0000
ENDCHAR

STARTCHAR Otilde
ENCODING 213
SWIDTH 840 0
DWIDTH 27 0
BBX 26 31 3 0
BITMAP
000F9000
001FF800
001FF800
0009F000
00000000
00000000
001FF000
007FFC00
01FFFE00
07FFFF00
0FF07F00
1FC01F80
3F000F80
3E000FC0
7E0007C0
7C0007C0
FC0007C0
F80007C0
F80007C0
F80007C0
F80007C0
F8000F80
F8000F80
FC001F00
7C003F00
7E00FE00
3FC3FC00
1FFFF800
0FFFE000
07FFC000
01FF0000
ENDCHAR

STARTCHAR Odieresis
ENCODING 214
SWIDTH 840 0
DWIDTH 27 0
BBX 26 31 3 0
BITMAP
003E7C00
003E7C00
003E7C00
003E7C00
00000000
00000000
001FF000
007FFC00
01FFFE00
07FFFF00
0FF07F00
1FC01F80
3F000F80
3E000FC0
7E0007C0
7C0007C0
FC0007C0
F80007C0
F80007C0
F80007C0
F80007C0
F8000F80
F8000F80
FC001F00
7C003F00
7E00FE00
3FC3FC00
1FFFF800
0FFFE000
07FFC000
01FF0000
ENDCHAR

STARTCHAR multiply
ENCODING 215
SWIDTH 600 0
DWIDTH 19 0
BBX 19 17 2 2
BITMAP
0C0080
1E01C0
3F03E0
1F07C0
0F9F80
0FFF00
07FE00
03F800
01F000
03F800
0FFC00
1FFE00
3F3E00
7C1F00
F81F00
700E00
200400
ENDCHAR

STARTCHAR Oslash
ENCODING 216
SWIDTH 840 0
DWIDTH 27 0
BBX 27 29 3 -2
BITMAP
00000180
000003C0
001FE7E0
007FFFC0
01FFFF80
03FFFF00
07F03F80
0FC07F80
1F80FF80
3F01FFC0
3E03F7C0
7C07E7C0
7C07C7C0
F80F87C0
F81F07C0
F83E07C0
F87C0FC0
F8F80F80
FDF81F80
7FF01F00
7FE03E00
3FC0FE00
3F83FC00
1FFFF800
3FFFE000
7FFFC000
7CFE0000
38000000
10000000
ENDCHAR

STARTCHAR Ugrave
ENCODING 217
SWIDTH 640 0
DWIDTH 21 0
BBX 19 33 4 0
BITMAP
008000
01E000
03F800
01FE00
007F00
001E00
000C00
000000
1E01E0
1E01E0
1E01E0
3E03E0
3E03E0
3C03C0
3C03C0
7C07C0
7C07C0
7C07C0
7C07C0
780780
780780
F80F80
F80F80
F80F80
F00F00
F01F00
F01F00
F03E00
F87E00
7FFC00
7FF800
3FF000
1FC000
ENDCHAR

STARTCHAR Uacute
ENCODING 218
SWIDTH 640 0
DWIDTH 21 0
BBX 19 33 4 0
BITMAP
000180
000780
001FC0
007F80
00FE00
007800
002000
000000
1E01E0
1E01E0
1E01E0
3E03E0
3E03E0
3C03C0
3C03C0
7C07C0
7C07C0
7C07C0
7C07C0
780780
780780
F80F80
F80F80
F80F80
F00F00
F01F00
F01F00
F03E00
F87E00
7FFC00
7FF800
3FF000
1FC000
ENDCHAR

STARTCHAR Ucircumflex
ENCODING 219
SWIDTH 640 0
DWIDTH 21 0
BBX 19 32 4 0
BITMAP
007C00
00FE00
01FF00
03CF80
078780
000000
000000
1E01E0
1E01E0
1E01E0
3E03E0
3E03E0
3C03C0
3C03C0
7C07C0
7C07C0
7C07C0
7C07C0
780780
780780
F80F80
F80F80
F80F80
F00F00
F01F00
F01F00
F03E00
F87E00
7FFC00
7FF800
3FF000
1FC000
ENDCHAR

STARTCHAR Udieresis
ENCODING 220
SWIDTH 640 0
DWIDTH 21 0
BBX 19 31 4 0
BITMAP
03E7C0
03E7C0
03E7C0
03E7C0
000000
000000
1E01E0
1E01E0
1E01E0
3E03E0
3E03E0
3C03C0
3C03C0
7C07C0
7C07C0
7C07C0
7C07C0
780780
780780
F80F80
F80F80
F80F80
F00F00
F01F00
F01F00
F03E00
F87E00
7FFC00
7FF800
3FF000
1FC000
ENDCHAR

STARTCHAR Yacute
ENCODING 221
SWIDTH 620 0
DWIDTH 20 0
BBX 20 33 5 0
BITMAP
000600
001E00
007F00
01FE00
03F800
01E000
008000
000000
F801F0
F803F0
7803E0
7C07C0
3C0F80
3C0F00
3E1E00
3E3E00
1E3C00
1F7C00
1F7800
0FF000
0FF000
0FE000
07C000
07C000
078000
078000
0F8000
0F0000
0F0000
0F0000
1E0000
1E0000
1E0000
ENDCHAR

STARTCHAR Thorn
ENCODING 222
SWIDTH 560 0
DWIDTH 18 0
BBX 18 25 2 0
BITMAP
0F8000
0F8000
0F8000
0F8000
0F8000
0FFC00
1FFF00
1FFF80
1FFF80
1F0FC0
1F07C0
1F07C0
3E07C0
3E07C0
3E0FC0
3E1F80
3FFF00
3FFF00
7FFE00
7FF800
7C0000
780000
F80000
F80000
F80000
ENDCHAR

STARTCHAR germandbls
ENCODING 223
SWIDTH 600 0
DWIDTH 19 0
BBX 19 25 2 0
BITMAP
007C00
01FF00
03FF80
07FF80
0F8FC0
0F07C0
1F07C0
1E07C0
1E0F80
1E0F80
3E7F00
3E7E00
3C7F80
3C7FC0
3C07C0
7C03E0
7C03E0
7C03E0
7F03E0
7F07C0
7F8FC0
FFFF80
FBFF00
FBFE00
F8F800
ENDCHAR

STARTCHAR agrave
ENCODING 224
SWIDTH 660 0
DWIDTH 21 0
BBX 21 27 2 0
BITMAP
006000
007800
00FE00
007F80
001FC0
000780
000180
000000
00FC78
03FF78
0FFFF8
1FFFF8
1F83F8
3E01F8
7E01F0
7C00F0
F800F0
F800F0
F801F0
F801E0
F803E0
FC07E0
7E0FE0
7FFFE0
3FFFE0
1FFBC0
07E3C0
ENDCHAR

STARTCHAR aacute
ENCODING 225
SWIDTH 660 0
DWIDTH 21 0
BBX 21 27 2 0
BITMAP
0000C0
0003C0
000FE0
003FC0
007F00
003C00
003000
000000
00FC78
03FF78
0FFFF8
1FFFF8
3F83F8
3E01F0
7E01F0
7C00F0
FC00F0
F800F0
F801E0
F801E0
F803E0
FC07E0
7E0FE0
7FFFC0
3FFFC0
1FFBC0
07E3C0
ENDCHAR

STARTCHAR acircumflex
ENCODING 226
SWIDTH 660 0
DWIDTH 21 0
BBX 21 26 2 0
BITMAP
003E00
007F00
00FF80
01E7C0
03C3C0
000000
000000
007C78
03FF78
0FFFF8
1FFFF8
3F83F8
3E01F0
7C01F0
7C00F0
F800F0
F800E0
F801E0
F801E0
F803E0
FC07E0
7E0FE0
7FFFC0
3FFFC0
1FFBC0
07E3C0
ENDCHAR

STARTCHAR atilde
ENCODING 227
SWIDTH 660 0
DWIDTH 21 0
BBX 21 25 2 0
BITMAP
00F900
01FF80
01FF80
009F00
000000
000000
007C78
03FF78
0FFFF8
1FFFF8
3FC3F0
3E01F0
7E01F0
7C00F0
FC00F0
F800E0
F801E0
F801E0
F803E0
FC07E0
7E1FE0
7FFFC0
3FFFC0
1FFBC0
07E3C0
ENDCHAR

STARTCHAR adieresis
ENCODING 228
SWIDTH 660 0
DWIDTH 21 0
BBX 21 25 2 0
BITMAP
01F3E0
01F3E0
01F3E0
01F3E0
000000
000000
00FC78
03FF78
0FFFF8
1FFFF8
3F83F8
3E01F8
7E00F0
7C00F0
F800F0
F800E0
F801E0
F801E0
F803E0
FC07E0
7E1FE0
7FFFC0
3FFFC0
1FFBC0
07E3C0
ENDCHAR

STARTCHAR aring
ENCODING 229
SWIDTH 660 0
DWIDTH 21 0
BBX 21 26 2 0
BITMAP
000F00
001F80
003180
003180
003F00
001E00
000000
00FC78
03FF78
0FFFF8
1FFFF8
1F83F0
3E01F0
7E00F0
7C00F0
FC00F0
F800E0
F801E0
F801E0
F803E0
FC07E0
7E1FE0
7FFFC0
3FFFC0
1FFBC0
07C3C0
ENDCHAR

STARTCHAR ae
ENCODING 230
SWIDTH 1080 0
DWIDTH 35 0
BBX 35 19 2 0
BITMAP
00FE70FC00
03FF73FF00
07FFF7FF80
0FFFFFFFC0
1F87FF0FC0
3E03FC07E0
3E01F803E0
7C01F803E0
7C01FFFFE0
7801FFFFE0
F801FFFFC0
F803FFFFC0
F803F00000
FC07F80000
7E1FFC3F80
7FFFFFFF00
3FFDDFFC00
1FF9CFF800
07E1C3E000
ENDCHAR

STARTCHAR ccedilla
ENCODING 231
SWIDTH 640 0
DWIDTH 21 0
BBX 20 26 3 -7
BITMAP
01FE00
07FF80
0FFFC0
1FFFE0
3F87E0
3E03F0
7C03F0
7C0000
F80000
F80000
F80000
F80000
F80000
7C07C0
7E0FC0
3FFF80
3FFF00
1FFE00
07F000
018000
03E000
03F000
003000
067000
07E000
03C000
ENDCHAR

STARTCHAR egrave
ENCODING 232
SWIDTH 640 0
DWIDTH 21 0
BBX 19 27 3 0
BITMAP
018000
01E000
03F800
01FE00
007F00
001E00
000C00
000000
00FC00
03FF00
0FFF80
1FFFC0
3F87C0
3E03E0
7C01E0
7801E0
FFFFE0
FFFFE0
FFFFE0
FFFFE0
F00000
F00000
F81F80
7FFF00
7FFE00
3FFC00
0FE000
ENDCHAR

STARTCHAR eacute
ENCODING 233
SWIDTH 640 0
DWIDTH 21 0
BBX 19 27 3 0
BITMAP
000180
000780
001FC0
007F80
00FE00
007800
002000
000000
00FC00
03FF00
0FFF80
1FFFC0
3F87C0
3E03E0
7C01E0
7801E0
FFFFE0
FFFFE0
FFFFE0
FFFFE0
F00000
F00000
F81F80
7FFF00
7FFE00
3FFC00
0FE000
ENDCHAR

STARTCHAR ecircumflex
ENCODING 234
SWIDTH 640 0
DWIDTH 21 0
BBX 19 26 3 0
BITMAP
007C00
00FE00
01FF00
03CF80
078780
000000
000000
00FC00
03FF00
0FFF80
1FFFC0
3F87C0
3E03E0
7C01E0
7801E0
FFFFE0
FFFFE0
FFFFE0
FFFFE0
F00000
F00000
F81F80
7FFF00
7FFE00
3FFC00
0FE000
ENDCHAR

STARTCHAR edieresis
ENCODING 235
SWIDTH 640 0
DWIDTH 21 0
BBX 19 25 3 0
BITMAP
07CF80
07CF80
07CF80
07CF80
000000
000000
00FC00
03FF00
0FFF80
1FFFC0
3F87C0
3E03E0
7C01E0
7801E0
FFFFE0
FFFFE0
FFFFE0
FFFFE0
F00000
F00000
F81F80
7FFF00
7FFE00
3FFC00
0FE000
ENDCHAR

STARTCHAR igrave
ENCODING 236
SWIDTH 240 0
DWIDTH 8 0
BBX 10 27 1 0
BITMAP
6000
7800
FE00
7F80
1FC0
0780
0180
0000
0F80
0F80
0F80
0F00
1F00
1F00
1F00
1E00
1E00
3E00
3E00
3E00
3C00
3C00
3C00
7C00
7C00
7800
7800
ENDCHAR

STARTCHAR iacute
ENCODING 237
SWIDTH 240 0
DWIDTH 8 0
BBX 13 27 2 0
BITMAP
0030
00F0
03F8
0FF0
1FC0
0F00
0C00
0000
1F00
1F00
1E00
1E00
3E00
3E00
3E00
3C00
3C00
3C00
7C00
7C00
7800
7800
7800
F800
F800
F000
F000
ENDCHAR

STARTCHAR icircumflex
ENCODING 238
SWIDTH 240 0
DWIDTH 8 0
BBX 12 26 2 0
BITMAP
0F80
1FC0
3FE0
79F0
F0F0
0000
0000
1F00
1F00
1F00
1E00
3E00
3E00
3E00
3C00
3C00
7C00
7C00
7C00
7800
7800
7800
F800
F800
F000
F000
ENDCHAR

STARTCHAR idieresis
ENCODING 239
SWIDTH 240 0
DWIDTH 8 0
BBX 12 25 2 0
BITMAP
F9F0
F9F0
F9F0
F9F0
0000
0000
1F00
1F00
1F00
1E00
3E00
3E00
3E00
3C00
3C00
7C00
7C00
7C00
7800
7800
7800
F800
F800
F000
F000
ENDCHAR

STARTCHAR eth
ENCODING 240
SWIDTH 640 0
DWIDTH 21 0
BBX 20 26 2 0
BITMAP
03C180
01F780
007F00
00FE00
03EF00
018780
0003C0
01F9C0
07FFE0
0FFFE0
1FFFF0
3F07F0
3E03F0
7C01F0
7C01F0
F801F0
F801F0
F801F0
F801E0
F803E0
FC07C0
7F1FC0
7FFF80
3FFF00
1FFC00
07F000
ENDCHAR

STARTCHAR ntilde
ENCODING 241
SWIDTH 600 0
DWIDTH 20 0
BBX 19 25 2 0
BITMAP
007C80
00FFC0
00FFC0
004F80
000000
000000
1E3E00
1EFF80
1FFFC0
1FFFC0
3F87E0
3F03E0
3E03E0
3E03E0
3C03C0
7C03C0
7C07C0
7C07C0
7C0780
780780
780780
F80F80
F00F00
F00F00
F00F00
ENDCHAR

STARTCHAR ograve
ENCODING 242
SWIDTH 640 0
DWIDTH 21 0
BBX 20 27 2 0
BITMAP
030000
03C000
07F000
03FC00
00FE00
003C00
001800
000000
00FE00
03FF80
07FFC0
0FFFE0
1FC7E0
3F03F0
3E01F0
7C01F0
7C01F0
F801F0
F801F0
F803E0
F803E0
FC07C0
7E1FC0
7FFF80
3FFF00
1FFC00
07F000
ENDCHAR

STARTCHAR oacute
ENCODING 243
SWIDTH 640 0
DWIDTH 21 0
BBX 20 27 2 0
BITMAP
000180
000780
001FC0
007F80
00FE00
007800
002000
000000
00FE00
03FF80
07FFC0
0FFFE0
1FC7E0
3F03F0
3E01F0
7C01F0
7C01F0
F801F0
F801F0
F803E0
F803E0
FC07C0
7E1FC0
7FFF80
3FFF00
1FFC00
07F000
ENDCHAR

STARTCHAR ocircumflex
ENCODING 244
SWIDTH 640 0
DWIDTH 21 0
BBX 20 26 2 0
BITMAP
003E00
007F00
00FF80
01E7C0
03C3C0
000000
000000
00FE00
03FF80
07FFC0
0FFFE0
1FC7E0
3F03F0
3E01F0
7C01F0
7C01F0
F801F0
F801F0
F803E0
F803E0
FC07C0
7E1FC0
7FFF80
3FFF00
1FFC00
07F000
ENDCHAR

STARTCHAR otilde
ENCODING 245
SWIDTH 640 0
DWIDTH 21 0
BBX 20 25 2 0
BITMAP
00F900
01FF80
01FF80
009F00
000000
000000
00FE00
03FF80
07FFC0
0FFFE0
1FC7E0
3F03F0
3E01F0
7C01F0
7C01F0
F801F0
F801F0
F803E0
F803E0
FC07C0
7E1FC0
7FFF80
3FFF00
1FFC00
07F000
ENDCHAR

STARTCHAR odieresis
ENCODING 246
SWIDTH 640 0
DWIDTH 21 0
BBX 20 25 2 0
BITMAP
03E7C0
03E7C0
03E7C0
03E7C0
000000
000000
00FE00
03FF80
07FFC0
0FFFE0
1FC7E0
3F03F0
3E01F0
7C01F0
7C01F0
F801F0
F801F0
F803E0
F803E0
FC07C0
7E1FC0
7FFF80
3FFF00
1FFC00
07F000
ENDCHAR

STARTCHAR divide
ENCODING 247
SWIDTH 600 0
DWIDTH 19 0
BBX 17 17 3 2
BITMAP
01E000
01E000
01E000
01E000
000000
000000
FFFF80
FFFF80
FFFF80
FFFF80
000000
000000
000000
078000
078000
078000
078000
ENDCHAR

STARTCHAR oslash
ENCODING 248
SWIDTH 660 0
DWIDTH 21 0
BBX 19 21 3 -1
BITMAP
000040
00FCE0
03FFE0
0FFFC0
1FC7C0
3F0FE0
3E1FE0
7C3FE0
787DE0
F0F9E0
F1F1E0
E3E3E0
E7C3C0
EF87C0
FF0F80
FE3F80
7FFF00
7FFE00
FFF800
E7E000
400000
ENDCHAR

STARTCHAR ugrave
ENCODING 249
SWIDTH 600 0
DWIDTH 20 0
BBX 19 27 3 0
BITMAP
030000
03C000
07F000
03FC00
00FE00
003C00
001800
000000
3E03E0
3E03E0
3E03E0
3C03C0
3C07C0
7C07C0
7C07C0
7C0780
780780
780F80
F80F80
F80F80
F81F00
F81F00
FC7F00
7FFF00
7FFE00
3FDE00
0F9E00
ENDCHAR

STARTCHAR uacute
ENCODING 250
SWIDTH 600 0
DWIDTH 20 0
BBX 19 27 3 0
BITMAP
000300
000F00
003F80
00FF00
01FC00
00F000
004000
000000
3E03E0
3E03E0
3E03E0
3C03C0
3C07C0
7C07C0
7C07C0
7C0780
780780
780F80
F80F80
F80F80
F81F00
F81F00
FC7F00
7FFF00
7FFE00
3FDE00
0F9E00
ENDCHAR

STARTCHAR ucircumflex
ENCODING 251
SWIDTH 600 0
DWIDTH 20 0
BBX 19 26 3 0
BITMAP
007C00
00FE00
01FF00
03CF80
078780
000000
000000
3E03E0
3E03E0
3E03E0
3C03C0
3C07C0
7C07C0
7C07C0
7C0780
780780
780F80
F80F80
F80F80
F81F00
F81F00
FC7F00
7FFF00
7FFE00
3FDE00
0F9E00
ENDCHAR

STARTCHAR udieresis
ENCODING 252
SWIDTH 600 0
DWIDTH 20 0
BBX 19 25 3 0
BITMAP
07CF80
07CF80
07CF80
07CF80
000000
000000
3E03E0
3E03E0
3E03E0
3C03C0
3C07C0
7C07C0
7C07C0
7C0780
780780
780F80
F80F80
F80F80
F81F00
F81F00
FC7F00
7FFF00
7FFE00
3FDE00
0F9E00
ENDCHAR

STARTCHAR yacute
ENCODING 253
SWIDTH 580 0
DWIDTH 19 0
BBX 19 33 3 -6
BITMAP
000300
000F00
003F80
00FF00
01FC00
00F000
00C000
000000
7C03E0
7C07E0
7C07C0
7C0F80
7C0F80
3E1F00
3E1F00
3E3E00
1E3C00
1E7C00
1FF800
1FF800
1FF000
0FE000
0FE000
07C000
078000
0F8000
1F0000
1F0000
3E0000
7C0000
7C0000
F80000
F80000
ENDCHAR

STARTCHAR thorn
ENCODING 254
SWIDTH 660 0
DWIDTH 21 0
BBX 22 31 1 -6
BITMAP
07C000
07C000
07C000
078000
078000
078000
0F1FC0
0F7FF0
0FFFF0
0FFFF8
0FE1F8
1F80FC
1F007C
1E007C
1E007C
1E007C
3E007C
3E00F8
3E00F8
3F01F0
3FC7F0
3FFFE0
7FFFC0
79FF80
787E00
780000
780000
F80000
F00000
F00000
F00000
ENDCHAR

STARTCHAR ydieresis
ENCODING 255
SWIDTH 580 0
DWIDTH 19 0
BBX 19 31 3 -6
BITMAP
0F8F80
0F8F80
0F8F80
0F8F80
000000
000000
7C03E0
7C07E0
7C07C0
7C0F80
3C0F80
3E1F00
3E1F00
3E3E00
1E3C00
1E7C00
1FF800
1FF800
1FF000
0FE000
0FE000
0FC000
0F8000
0F8000
1F0000
1F0000
3E0000
7C0000
7C0000
F80000
F80000
ENDCHAR
ENDFONT
